# xmcd
#
# Track frame offsets:
#	182
#	21027
#	37000
#	48720
#	63415
#	75820
#	102015
#	114970
#	136855
#
# Disc length: 2032 seconds
#
# Revision: 1
# Processed by: cddbd v1.4PL0 Copyright (c) Steve Scherf et al.
# Submitted via: audiograbber 1.80.04
#
DISCID=6607ee09
DTITLE=Herman Brood - Showbiz Blues
DYEAR=1900
DGENRE=Blues
TTITLE0=Showbizz-Blues
TTITLE1=good thing
TTITLE2=goin' to the city
TTITLE3=hounddog
TTITLE4=days
TTITLE5=lepers and the dead
TTITLE6=bob the dust
TTITLE7=heartbreak hotel
TTITLE8=persico
EXTD=
EXTT0=
EXTT1=
EXTT2=
EXTT3=
EXTT4=
EXTT5=
EXTT6=
EXTT7=
EXTT8=
PLAYORDER=
